<svg width="64" height="44" viewBox="0 0 64 44" fill="none" xmlns="http://www.w3.org/2000/svg">
<g clip-path="url(#clip0_14_21)">
<mask id="mask0_14_21" style="mask-type:luminance" maskUnits="userSpaceOnUse" x="0" y="0" width="65" height="44">
<path d="M64.0006 0H0.000274658V44H64.0006V0Z" fill="white"/>
</mask>
<g mask="url(#mask0_14_21)">
<path d="M74.002 0H-9.99799V44H74.002V0Z" fill="white"/>
<path d="M74.0017 29.5487H-9.99826V44H74.0017V29.5487Z" fill="#DA0000"/>
<path d="M10.5707 30.1605H5.9704V30.4506H10.5707V30.1605Z" fill="white"/>
<path d="M6.97278 31.6115H6.65625V31.8932H6.97278V31.6115Z" fill="white"/>
<path d="M10.5826 31.8924V31.6023H9.66327V31.8924H10.5826Z" fill="white"/>
<path d="M11.3937 30.1605H11.0771V31.893H11.3937V30.1605Z" fill="white"/>
<path d="M12.9085 31.8924V31.6023H11.1662V31.8924H12.9085Z" fill="white"/>
<path d="M9.9798 30.9245H9.66327V31.893H9.9798V30.9245Z" fill="white"/>
<path d="M12.9659 30.1605H12.6493V31.893H12.9659V30.1605Z" fill="white"/>
<path d="M12.1744 30.1605H11.8579V31.893H12.1744V30.1605Z" fill="white"/>
<path d="M7.65802 31.1402V30.8501H5.97899V31.1402H7.65802Z" fill="white"/>
<path d="M11.3423 31.1402V30.8501H9.66325V31.1402H11.3423Z" fill="white"/>
<path d="M9.9798 30.9245H9.66327V31.893H9.9798V30.9245Z" fill="white"/>
<path d="M9.9798 30.9245H9.66327V31.893H9.9798V30.9245Z" fill="white"/>
<path d="M9.9798 30.9245H9.66327V31.893H9.9798V30.9245Z" fill="white"/>
<path d="M6.29544 30.9245H5.97891V31.893H6.29544V30.9245Z" fill="white"/>
<path d="M8.99603 30.9245H8.6795V31.893H8.99603V30.9245Z" fill="white"/>
<path d="M7.65808 30.9245H7.34155V31.893H7.65808V30.9245Z" fill="white"/>
<path d="M8.90161 31.8924V31.6023H7.48229V31.8924H8.90161Z" fill="white"/>
<path d="M8.99606 31.1402V30.8501H8.0962V31.1402H8.99606Z" fill="white"/>
<path d="M3.01443 30.1605H-1.58585V30.4506H3.01443V30.1605Z" fill="white"/>
<path d="M3.0264 31.8924V31.6023H2.10703V31.8924H3.0264Z" fill="white"/>
<path d="M3.83743 30.1605H3.5209V31.893H3.83743V30.1605Z" fill="white"/>
<path d="M5.35226 31.8924V31.6023H3.60998V31.8924H5.35226Z" fill="white"/>
<path d="M2.42355 30.9245H2.10703V31.893H2.42355V30.9245Z" fill="white"/>
<path d="M5.40964 30.1605H5.09311V31.893H5.40964V30.1605Z" fill="white"/>
<path d="M4.6182 30.1605H4.30167V31.893H4.6182V30.1605Z" fill="white"/>
<path d="M0.101776 31.1402V30.8501H-1.57725V31.1402H0.101776Z" fill="white"/>
<path d="M3.78607 31.1402V30.8501H2.10704V31.1402H3.78607Z" fill="white"/>
<path d="M2.42355 30.9245H2.10703V31.893H2.42355V30.9245Z" fill="white"/>
<path d="M2.42355 30.9245H2.10703V31.893H2.42355V30.9245Z" fill="white"/>
<path d="M2.42355 30.9245H2.10703V31.893H2.42355V30.9245Z" fill="white"/>
<path d="M1.43979 30.9245H1.12326V31.893H1.43979V30.9245Z" fill="white"/>
<path d="M0.101838 30.9245H-0.214691V31.893H0.101838V30.9245Z" fill="white"/>
<path d="M1.34537 31.8924V31.6023H-0.0739511V31.8924H1.34537Z" fill="white"/>
<path d="M1.43982 31.1402V30.8501H0.539953V31.1402H1.43982Z" fill="white"/>
<path d="M18.0636 30.1605H13.4633V30.4506H18.0636V30.1605Z" fill="white"/>
<path d="M14.4657 31.6115H14.1492V31.8932H14.4657V31.6115Z" fill="white"/>
<path d="M18.0756 31.8924V31.6023H17.1562V31.8924H18.0756Z" fill="white"/>
<path d="M18.8866 30.1605H18.5701V31.893H18.8866V30.1605Z" fill="white"/>
<path d="M20.4014 31.8924V31.6023H18.6591V31.8924H20.4014Z" fill="white"/>
<path d="M17.4727 30.9245H17.1562V31.893H17.4727V30.9245Z" fill="white"/>
<path d="M20.4588 30.1605H20.1423V31.893H20.4588V30.1605Z" fill="white"/>
<path d="M19.6674 30.1605H19.3508V31.893H19.6674V30.1605Z" fill="white"/>
<path d="M15.1509 31.1402V30.8501H13.4719V31.1402H15.1509Z" fill="white"/>
<path d="M18.8352 31.1402V30.8501H17.1562V31.1402H18.8352Z" fill="white"/>
<path d="M17.4727 30.9245H17.1562V31.893H17.4727V30.9245Z" fill="white"/>
<path d="M17.4727 30.9245H17.1562V31.893H17.4727V30.9245Z" fill="white"/>
<path d="M17.4727 30.9245H17.1562V31.893H17.4727V30.9245Z" fill="white"/>
<path d="M13.7884 30.9245H13.4719V31.893H13.7884V30.9245Z" fill="white"/>
<path d="M16.489 30.9245H16.1724V31.893H16.489V30.9245Z" fill="white"/>
<path d="M15.151 30.9245H14.8345V31.893H15.151V30.9245Z" fill="white"/>
<path d="M16.3945 31.8924V31.6023H14.9752V31.8924H16.3945Z" fill="white"/>
<path d="M16.489 31.1402V30.8501H15.5891V31.1402H16.489Z" fill="white"/>
<path d="M25.6054 30.1605H21.0051V30.4506H25.6054V30.1605Z" fill="white"/>
<path d="M22.0075 31.6115H21.6909V31.8932H22.0075V31.6115Z" fill="white"/>
<path d="M25.6173 31.8924V31.6023H24.698V31.8924H25.6173Z" fill="white"/>
<path d="M26.4284 30.1605H26.1118V31.893H26.4284V30.1605Z" fill="white"/>
<path d="M27.9432 31.8924V31.6023H26.2009V31.8924H27.9432Z" fill="white"/>
<path d="M25.0145 30.9245H24.698V31.893H25.0145V30.9245Z" fill="white"/>
<path d="M28.0006 30.1605H27.684V31.893H28.0006V30.1605Z" fill="white"/>
<path d="M27.2091 30.1605H26.8926V31.893H27.2091V30.1605Z" fill="white"/>
<path d="M22.6927 31.1402V30.8501H21.0137V31.1402H22.6927Z" fill="white"/>
<path d="M26.377 31.1402V30.8501H24.698V31.1402H26.377Z" fill="white"/>
<path d="M25.0145 30.9245H24.698V31.893H25.0145V30.9245Z" fill="white"/>
<path d="M25.0145 30.9245H24.698V31.893H25.0145V30.9245Z" fill="white"/>
<path d="M25.0145 30.9245H24.698V31.893H25.0145V30.9245Z" fill="white"/>
<path d="M21.3301 30.9245H21.0136V31.893H21.3301V30.9245Z" fill="white"/>
<path d="M24.0307 30.9245H23.7142V31.893H24.0307V30.9245Z" fill="white"/>
<path d="M22.6928 30.9245H22.3763V31.893H22.6928V30.9245Z" fill="white"/>
<path d="M23.9363 31.8924V31.6023H22.517V31.8924H23.9363Z" fill="white"/>
<path d="M24.0308 31.1402V30.8501H23.1309V31.1402H24.0308Z" fill="white"/>
<path d="M33.1747 30.1605H28.5745V30.4506H33.1747V30.1605Z" fill="white"/>
<path d="M29.5768 31.6115H29.2603V31.8932H29.5768V31.6115Z" fill="white"/>
<path d="M33.1867 31.8924V31.6023H32.2673V31.8924H33.1867Z" fill="white"/>
<path d="M33.9977 30.1605H33.6812V31.893H33.9977V30.1605Z" fill="white"/>
<path d="M35.5126 31.8924V31.6023H33.7703V31.8924H35.5126Z" fill="white"/>
<path d="M32.5839 30.9245H32.2673V31.893H32.5839V30.9245Z" fill="white"/>
<path d="M35.5699 30.1605H35.2534V31.893H35.5699V30.1605Z" fill="white"/>
<path d="M34.7785 30.1605H34.462V31.893H34.7785V30.1605Z" fill="white"/>
<path d="M30.2621 31.1402V30.8501H28.5831V31.1402H30.2621Z" fill="white"/>
<path d="M33.9464 31.1402V30.8501H32.2673V31.1402H33.9464Z" fill="white"/>
<path d="M32.5839 30.9245H32.2673V31.893H32.5839V30.9245Z" fill="white"/>
<path d="M32.5839 30.9245H32.2673V31.893H32.5839V30.9245Z" fill="white"/>
<path d="M32.5839 30.9245H32.2673V31.893H32.5839V30.9245Z" fill="white"/>
<path d="M28.8995 30.9245H28.583V31.893H28.8995V30.9245Z" fill="white"/>
<path d="M31.6001 30.9245H31.2836V31.893H31.6001V30.9245Z" fill="white"/>
<path d="M30.2621 30.9245H29.9456V31.893H30.2621V30.9245Z" fill="white"/>
<path d="M31.5057 31.8924V31.6023H30.0864V31.8924H31.5057Z" fill="white"/>
<path d="M31.6001 31.1402V30.8501H30.7003V31.1402H31.6001Z" fill="white"/>
<path d="M74.002 0H-9.99799V14.4513H74.002V0Z" fill="#239F40"/>
<path d="M40.7882 30.1605H36.1879V30.4506H40.7882V30.1605Z" fill="white"/>
<path d="M37.1903 31.6115H36.8737V31.8932H37.1903V31.6115Z" fill="white"/>
<path d="M40.8001 31.8924V31.6023H39.8808V31.8924H40.8001Z" fill="white"/>
<path d="M41.6112 30.1605H41.2947V31.893H41.6112V30.1605Z" fill="white"/>
<path d="M43.126 31.8924V31.6023H41.3837V31.8924H43.126Z" fill="white"/>
<path d="M40.1973 30.9245H39.8808V31.893H40.1973V30.9245Z" fill="white"/>
<path d="M43.1834 30.1605H42.8669V31.893H43.1834V30.1605Z" fill="white"/>
<path d="M42.3919 30.1605H42.0754V31.893H42.3919V30.1605Z" fill="white"/>
<path d="M37.8755 31.1402V30.8501H36.1965V31.1402H37.8755Z" fill="white"/>
<path d="M41.5598 31.1402V30.8501H39.8808V31.1402H41.5598Z" fill="white"/>
<path d="M40.1973 30.9245H39.8808V31.893H40.1973V30.9245Z" fill="white"/>
<path d="M40.1973 30.9245H39.8808V31.893H40.1973V30.9245Z" fill="white"/>
<path d="M40.1973 30.9245H39.8808V31.893H40.1973V30.9245Z" fill="white"/>
<path d="M36.513 30.9245H36.1964V31.893H36.513V30.9245Z" fill="white"/>
<path d="M39.2135 30.9245H38.897V31.893H39.2135V30.9245Z" fill="white"/>
<path d="M37.8756 30.9245H37.5591V31.893H37.8756V30.9245Z" fill="white"/>
<path d="M39.1191 31.8924V31.6023H37.6998V31.8924H39.1191Z" fill="white"/>
<path d="M39.2136 31.1402V30.8501H38.3137V31.1402H39.2136Z" fill="white"/>
<path d="M48.3566 30.1605H43.7563V30.4506H48.3566V30.1605Z" fill="white"/>
<path d="M44.7587 31.6115H44.4422V31.8932H44.7587V31.6115Z" fill="white"/>
<path d="M48.3686 31.8924V31.6023H47.4492V31.8924H48.3686Z" fill="white"/>
<path d="M49.1796 30.1605H48.8631V31.893H49.1796V30.1605Z" fill="white"/>
<path d="M50.6944 31.8924V31.6023H48.9521V31.8924H50.6944Z" fill="white"/>
<path d="M47.7657 30.9245H47.4492V31.893H47.7657V30.9245Z" fill="white"/>
<path d="M50.7518 30.1605H50.4353V31.893H50.7518V30.1605Z" fill="white"/>
<path d="M49.9604 30.1605H49.6439V31.893H49.9604V30.1605Z" fill="white"/>
<path d="M45.444 31.1402V30.8501H43.7649V31.1402H45.444Z" fill="white"/>
<path d="M49.1282 31.1402V30.8501H47.4492V31.1402H49.1282Z" fill="white"/>
<path d="M47.7657 30.9245H47.4492V31.893H47.7657V30.9245Z" fill="white"/>
<path d="M47.7657 30.9245H47.4492V31.893H47.7657V30.9245Z" fill="white"/>
<path d="M47.7657 30.9245H47.4492V31.893H47.7657V30.9245Z" fill="white"/>
<path d="M44.0814 30.9245H43.7649V31.893H44.0814V30.9245Z" fill="white"/>
<path d="M46.782 30.9245H46.4655V31.893H46.782V30.9245Z" fill="white"/>
<path d="M45.444 30.9245H45.1275V31.893H45.444V30.9245Z" fill="white"/>
<path d="M46.6876 31.8924V31.6023H45.2682V31.8924H46.6876Z" fill="white"/>
<path d="M46.782 31.1402V30.8501H45.8821V31.1402H46.782Z" fill="white"/>
<path d="M55.926 30.1605H51.3257V30.4506H55.926V30.1605Z" fill="white"/>
<path d="M52.3281 31.6115H52.0116V31.8932H52.3281V31.6115Z" fill="white"/>
<path d="M55.938 31.8924V31.6023H55.0186V31.8924H55.938Z" fill="white"/>
<path d="M56.749 30.1605H56.4325V31.893H56.749V30.1605Z" fill="white"/>
<path d="M58.2638 31.8924V31.6023H56.5215V31.8924H58.2638Z" fill="white"/>
<path d="M55.3351 30.9245H55.0186V31.893H55.3351V30.9245Z" fill="white"/>
<path d="M58.3212 30.1605H58.0046V31.893H58.3212V30.1605Z" fill="white"/>
<path d="M57.5298 30.1605H57.2132V31.893H57.5298V30.1605Z" fill="white"/>
<path d="M53.0133 31.1402V30.8501H51.3343V31.1402H53.0133Z" fill="white"/>
<path d="M56.6976 31.1402V30.8501H55.0186V31.1402H56.6976Z" fill="white"/>
<path d="M55.3351 30.9245H55.0186V31.893H55.3351V30.9245Z" fill="white"/>
<path d="M55.3351 30.9245H55.0186V31.893H55.3351V30.9245Z" fill="white"/>
<path d="M55.3351 30.9245H55.0186V31.893H55.3351V30.9245Z" fill="white"/>
<path d="M51.6508 30.9245H51.3342V31.893H51.6508V30.9245Z" fill="white"/>
<path d="M54.3514 30.9245H54.0348V31.893H54.3514V30.9245Z" fill="white"/>
<path d="M53.0134 30.9245H52.6969V31.893H53.0134V30.9245Z" fill="white"/>
<path d="M54.2569 31.8924V31.6023H52.8376V31.8924H54.2569Z" fill="white"/>
<path d="M54.3514 31.1402V30.8501H53.4515V31.1402H54.3514Z" fill="white"/>
<path d="M63.5394 30.1605H58.9391V30.4506H63.5394V30.1605Z" fill="white"/>
<path d="M59.9415 31.6115H59.625V31.8932H59.9415V31.6115Z" fill="white"/>
<path d="M63.5514 31.8924V31.6023H62.632V31.8924H63.5514Z" fill="white"/>
<path d="M62.9485 30.9245H62.632V31.893H62.9485V30.9245Z" fill="white"/>
<path d="M60.6268 31.1402V30.8501H58.9477V31.1402H60.6268Z" fill="white"/>
<path d="M64.3111 31.1402V30.8501H62.632V31.1402H64.3111Z" fill="white"/>
<path d="M62.9485 30.9245H62.632V31.893H62.9485V30.9245Z" fill="white"/>
<path d="M62.9485 30.9245H62.632V31.893H62.9485V30.9245Z" fill="white"/>
<path d="M62.9485 30.9245H62.632V31.893H62.9485V30.9245Z" fill="white"/>
<path d="M59.2642 30.9245H58.9477V31.893H59.2642V30.9245Z" fill="white"/>
<path d="M61.9648 30.9245H61.6483V31.893H61.9648V30.9245Z" fill="white"/>
<path d="M60.6268 30.9245H60.3103V31.893H60.6268V30.9245Z" fill="white"/>
<path d="M61.8704 31.8924V31.6023H60.451V31.8924H61.8704Z" fill="white"/>
<path d="M61.9648 31.1402V30.8501H61.0649V31.1402H61.9648Z" fill="white"/>
<path d="M10.5707 12.3271H5.9704V12.6173H10.5707V12.3271Z" fill="white"/>
<path d="M6.97278 13.778H6.65625V14.0598H6.97278V13.778Z" fill="white"/>
<path d="M10.5826 14.059V13.7689H9.66327V14.059H10.5826Z" fill="white"/>
<path d="M11.3937 12.3271H11.0771V14.0596H11.3937V12.3271Z" fill="white"/>
<path d="M12.9085 14.059V13.7689H11.1662V14.059H12.9085Z" fill="white"/>
<path d="M9.9798 13.0911H9.66327V14.0596H9.9798V13.0911Z" fill="white"/>
<path d="M12.9659 12.3271H12.6493V14.0596H12.9659V12.3271Z" fill="white"/>
<path d="M12.1744 12.3271H11.8579V14.0596H12.1744V12.3271Z" fill="white"/>
<path d="M7.65802 13.3068V13.0167H5.97899V13.3068H7.65802Z" fill="white"/>
<path d="M11.3423 13.3068V13.0167H9.66325V13.3068H11.3423Z" fill="white"/>
<path d="M9.9798 13.0911H9.66327V14.0596H9.9798V13.0911Z" fill="white"/>
<path d="M9.9798 13.0911H9.66327V14.0596H9.9798V13.0911Z" fill="white"/>
<path d="M9.9798 13.0911H9.66327V14.0596H9.9798V13.0911Z" fill="white"/>
<path d="M6.29544 13.0911H5.97891V14.0596H6.29544V13.0911Z" fill="white"/>
<path d="M8.99603 13.0911H8.6795V14.0596H8.99603V13.0911Z" fill="white"/>
<path d="M7.65808 13.0911H7.34155V14.0596H7.65808V13.0911Z" fill="white"/>
<path d="M8.90161 14.059V13.7689H7.48229V14.059H8.90161Z" fill="white"/>
<path d="M8.99606 13.3068V13.0167H8.0962V13.3068H8.99606Z" fill="white"/>
<path d="M3.01443 12.3271H-1.58585V12.6173H3.01443V12.3271Z" fill="white"/>
<path d="M3.0264 14.059V13.7689H2.10703V14.059H3.0264Z" fill="white"/>
<path d="M3.83743 12.3271H3.5209V14.0596H3.83743V12.3271Z" fill="white"/>
<path d="M5.35226 14.059V13.7689H3.60998V14.059H5.35226Z" fill="white"/>
<path d="M2.42355 13.0911H2.10703V14.0596H2.42355V13.0911Z" fill="white"/>
<path d="M5.40964 12.3271H5.09311V14.0596H5.40964V12.3271Z" fill="white"/>
<path d="M4.6182 12.3271H4.30167V14.0596H4.6182V12.3271Z" fill="white"/>
<path d="M0.101776 13.3068V13.0167H-1.57725V13.3068H0.101776Z" fill="white"/>
<path d="M3.78607 13.3068V13.0167H2.10704V13.3068H3.78607Z" fill="white"/>
<path d="M2.42355 13.0911H2.10703V14.0596H2.42355V13.0911Z" fill="white"/>
<path d="M2.42355 13.0911H2.10703V14.0596H2.42355V13.0911Z" fill="white"/>
<path d="M2.42355 13.0911H2.10703V14.0596H2.42355V13.0911Z" fill="white"/>
<path d="M1.43979 13.0911H1.12326V14.0596H1.43979V13.0911Z" fill="white"/>
<path d="M0.101838 13.0911H-0.214691V14.0596H0.101838V13.0911Z" fill="white"/>
<path d="M1.34537 14.059V13.7689H-0.0739511V14.059H1.34537Z" fill="white"/>
<path d="M1.43982 13.3068V13.0167H0.539953V13.3068H1.43982Z" fill="white"/>
<path d="M18.0636 12.3271H13.4633V12.6173H18.0636V12.3271Z" fill="white"/>
<path d="M14.4657 13.778H14.1492V14.0598H14.4657V13.778Z" fill="white"/>
<path d="M18.0756 14.059V13.7689H17.1562V14.059H18.0756Z" fill="white"/>
<path d="M18.8866 12.3271H18.5701V14.0596H18.8866V12.3271Z" fill="white"/>
<path d="M20.4014 14.059V13.7689H18.6591V14.059H20.4014Z" fill="white"/>
<path d="M17.4727 13.0911H17.1562V14.0596H17.4727V13.0911Z" fill="white"/>
<path d="M20.4588 12.3271H20.1423V14.0596H20.4588V12.3271Z" fill="white"/>
<path d="M19.6674 12.3271H19.3508V14.0596H19.6674V12.3271Z" fill="white"/>
<path d="M15.1509 13.3068V13.0167H13.4719V13.3068H15.1509Z" fill="white"/>
<path d="M18.8352 13.3068V13.0167H17.1562V13.3068H18.8352Z" fill="white"/>
<path d="M17.4727 13.0911H17.1562V14.0596H17.4727V13.0911Z" fill="white"/>
<path d="M17.4727 13.0911H17.1562V14.0596H17.4727V13.0911Z" fill="white"/>
<path d="M17.4727 13.0911H17.1562V14.0596H17.4727V13.0911Z" fill="white"/>
<path d="M13.7884 13.0911H13.4719V14.0596H13.7884V13.0911Z" fill="white"/>
<path d="M16.489 13.0911H16.1724V14.0596H16.489V13.0911Z" fill="white"/>
<path d="M15.151 13.0911H14.8345V14.0596H15.151V13.0911Z" fill="white"/>
<path d="M16.3945 14.059V13.7689H14.9752V14.059H16.3945Z" fill="white"/>
<path d="M16.489 13.3068V13.0167H15.5891V13.3068H16.489Z" fill="white"/>
<path d="M25.6054 12.3271H21.0051V12.6173H25.6054V12.3271Z" fill="white"/>
<path d="M22.0075 13.778H21.6909V14.0598H22.0075V13.778Z" fill="white"/>
<path d="M25.6173 14.059V13.7689H24.698V14.059H25.6173Z" fill="white"/>
<path d="M26.4284 12.3271H26.1118V14.0596H26.4284V12.3271Z" fill="white"/>
<path d="M27.9432 14.059V13.7689H26.2009V14.059H27.9432Z" fill="white"/>
<path d="M25.0145 13.0911H24.698V14.0596H25.0145V13.0911Z" fill="white"/>
<path d="M28.0006 12.3271H27.684V14.0596H28.0006V12.3271Z" fill="white"/>
<path d="M27.2091 12.3271H26.8926V14.0596H27.2091V12.3271Z" fill="white"/>
<path d="M22.6927 13.3068V13.0167H21.0137V13.3068H22.6927Z" fill="white"/>
<path d="M26.377 13.3068V13.0167H24.698V13.3068H26.377Z" fill="white"/>
<path d="M25.0145 13.0911H24.698V14.0596H25.0145V13.0911Z" fill="white"/>
<path d="M25.0145 13.0911H24.698V14.0596H25.0145V13.0911Z" fill="white"/>
<path d="M25.0145 13.0911H24.698V14.0596H25.0145V13.0911Z" fill="white"/>
<path d="M21.3301 13.0911H21.0136V14.0596H21.3301V13.0911Z" fill="white"/>
<path d="M24.0307 13.0911H23.7142V14.0596H24.0307V13.0911Z" fill="white"/>
<path d="M22.6928 13.0911H22.3763V14.0596H22.6928V13.0911Z" fill="white"/>
<path d="M23.9363 14.059V13.7689H22.517V14.059H23.9363Z" fill="white"/>
<path d="M24.0308 13.3068V13.0167H23.1309V13.3068H24.0308Z" fill="white"/>
<path d="M33.1747 12.3271H28.5745V12.6173H33.1747V12.3271Z" fill="white"/>
<path d="M29.5768 13.778H29.2603V14.0598H29.5768V13.778Z" fill="white"/>
<path d="M33.1867 14.059V13.7689H32.2673V14.059H33.1867Z" fill="white"/>
<path d="M33.9977 12.3271H33.6812V14.0596H33.9977V12.3271Z" fill="white"/>
<path d="M35.5126 14.059V13.7689H33.7703V14.059H35.5126Z" fill="white"/>
<path d="M32.5839 13.0911H32.2673V14.0596H32.5839V13.0911Z" fill="white"/>
<path d="M35.5699 12.3271H35.2534V14.0596H35.5699V12.3271Z" fill="white"/>
<path d="M34.7785 12.3271H34.462V14.0596H34.7785V12.3271Z" fill="white"/>
<path d="M30.2621 13.3068V13.0167H28.5831V13.3068H30.2621Z" fill="white"/>
<path d="M33.9464 13.3068V13.0167H32.2673V13.3068H33.9464Z" fill="white"/>
<path d="M32.5839 13.0911H32.2673V14.0596H32.5839V13.0911Z" fill="white"/>
<path d="M32.5839 13.0911H32.2673V14.0596H32.5839V13.0911Z" fill="white"/>
<path d="M32.5839 13.0911H32.2673V14.0596H32.5839V13.0911Z" fill="white"/>
<path d="M28.8995 13.0911H28.583V14.0596H28.8995V13.0911Z" fill="white"/>
<path d="M31.6001 13.0911H31.2836V14.0596H31.6001V13.0911Z" fill="white"/>
<path d="M30.2621 13.0911H29.9456V14.0596H30.2621V13.0911Z" fill="white"/>
<path d="M31.5057 14.059V13.7689H30.0864V14.059H31.5057Z" fill="white"/>
<path d="M31.6001 13.3068V13.0167H30.7003V13.3068H31.6001Z" fill="white"/>
<path d="M40.7882 12.3271H36.1879V12.6173H40.7882V12.3271Z" fill="white"/>
<path d="M37.1903 13.778H36.8737V14.0598H37.1903V13.778Z" fill="white"/>
<path d="M40.8001 14.059V13.7689H39.8808V14.059H40.8001Z" fill="white"/>
<path d="M41.6112 12.3271H41.2947V14.0596H41.6112V12.3271Z" fill="white"/>
<path d="M43.126 14.059V13.7689H41.3837V14.059H43.126Z" fill="white"/>
<path d="M40.1973 13.0911H39.8808V14.0596H40.1973V13.0911Z" fill="white"/>
<path d="M43.1834 12.3271H42.8669V14.0596H43.1834V12.3271Z" fill="white"/>
<path d="M42.3919 12.3271H42.0754V14.0596H42.3919V12.3271Z" fill="white"/>
<path d="M37.8755 13.3068V13.0167H36.1965V13.3068H37.8755Z" fill="white"/>
<path d="M41.5598 13.3068V13.0167H39.8808V13.3068H41.5598Z" fill="white"/>
<path d="M40.1973 13.0911H39.8808V14.0596H40.1973V13.0911Z" fill="white"/>
<path d="M40.1973 13.0911H39.8808V14.0596H40.1973V13.0911Z" fill="white"/>
<path d="M40.1973 13.0911H39.8808V14.0596H40.1973V13.0911Z" fill="white"/>
<path d="M36.513 13.0911H36.1964V14.0596H36.513V13.0911Z" fill="white"/>
<path d="M39.2135 13.0911H38.897V14.0596H39.2135V13.0911Z" fill="white"/>
<path d="M37.8756 13.0911H37.5591V14.0596H37.8756V13.0911Z" fill="white"/>
<path d="M39.1191 14.059V13.7689H37.6998V14.059H39.1191Z" fill="white"/>
<path d="M39.2136 13.3068V13.0167H38.3137V13.3068H39.2136Z" fill="white"/>
<path d="M48.3566 12.3271H43.7563V12.6173H48.3566V12.3271Z" fill="white"/>
<path d="M44.7587 13.778H44.4422V14.0598H44.7587V13.778Z" fill="white"/>
<path d="M48.3686 14.059V13.7689H47.4492V14.059H48.3686Z" fill="white"/>
<path d="M49.1796 12.3271H48.8631V14.0596H49.1796V12.3271Z" fill="white"/>
<path d="M50.6944 14.059V13.7689H48.9521V14.059H50.6944Z" fill="white"/>
<path d="M47.7657 13.0911H47.4492V14.0596H47.7657V13.0911Z" fill="white"/>
<path d="M50.7518 12.3271H50.4353V14.0596H50.7518V12.3271Z" fill="white"/>
<path d="M49.9604 12.3271H49.6439V14.0596H49.9604V12.3271Z" fill="white"/>
<path d="M45.444 13.3068V13.0167H43.7649V13.3068H45.444Z" fill="white"/>
<path d="M49.1282 13.3068V13.0167H47.4492V13.3068H49.1282Z" fill="white"/>
<path d="M47.7657 13.0911H47.4492V14.0596H47.7657V13.0911Z" fill="white"/>
<path d="M47.7657 13.0911H47.4492V14.0596H47.7657V13.0911Z" fill="white"/>
<path d="M47.7657 13.0911H47.4492V14.0596H47.7657V13.0911Z" fill="white"/>
<path d="M44.0814 13.0911H43.7649V14.0596H44.0814V13.0911Z" fill="white"/>
<path d="M46.782 13.0911H46.4655V14.0596H46.782V13.0911Z" fill="white"/>
<path d="M45.444 13.0911H45.1275V14.0596H45.444V13.0911Z" fill="white"/>
<path d="M46.6876 14.059V13.7689H45.2682V14.059H46.6876Z" fill="white"/>
<path d="M46.782 13.3068V13.0167H45.8821V13.3068H46.782Z" fill="white"/>
<path d="M55.926 12.3271H51.3257V12.6173H55.926V12.3271Z" fill="white"/>
<path d="M52.3281 13.778H52.0116V14.0598H52.3281V13.778Z" fill="white"/>
<path d="M55.938 14.059V13.7689H55.0186V14.059H55.938Z" fill="white"/>
<path d="M56.749 12.3271H56.4325V14.0596H56.749V12.3271Z" fill="white"/>
<path d="M58.2638 14.059V13.7689H56.5215V14.059H58.2638Z" fill="white"/>
<path d="M55.3351 13.0911H55.0186V14.0596H55.3351V13.0911Z" fill="white"/>
<path d="M58.3212 12.3271H58.0046V14.0596H58.3212V12.3271Z" fill="white"/>
<path d="M57.5298 12.3271H57.2132V14.0596H57.5298V12.3271Z" fill="white"/>
<path d="M53.0133 13.3068V13.0167H51.3343V13.3068H53.0133Z" fill="white"/>
<path d="M56.6976 13.3068V13.0167H55.0186V13.3068H56.6976Z" fill="white"/>
<path d="M55.3351 13.0911H55.0186V14.0596H55.3351V13.0911Z" fill="white"/>
<path d="M55.3351 13.0911H55.0186V14.0596H55.3351V13.0911Z" fill="white"/>
<path d="M55.3351 13.0911H55.0186V14.0596H55.3351V13.0911Z" fill="white"/>
<path d="M51.6508 13.0911H51.3342V14.0596H51.6508V13.0911Z" fill="white"/>
<path d="M54.3514 13.0911H54.0348V14.0596H54.3514V13.0911Z" fill="white"/>
<path d="M53.0134 13.0911H52.6969V14.0596H53.0134V13.0911Z" fill="white"/>
<path d="M54.2569 14.059V13.7689H52.8376V14.059H54.2569Z" fill="white"/>
<path d="M54.3514 13.3068V13.0167H53.4515V13.3068H54.3514Z" fill="white"/>
<path d="M63.5394 12.3271H58.9391V12.6173H63.5394V12.3271Z" fill="white"/>
<path d="M59.9415 13.778H59.625V14.0598H59.9415V13.778Z" fill="white"/>
<path d="M63.5514 14.059V13.7689H62.632V14.059H63.5514Z" fill="white"/>
<path d="M62.9485 13.0911H62.632V14.0596H62.9485V13.0911Z" fill="white"/>
<path d="M60.6268 13.3068V13.0167H58.9477V13.3068H60.6268Z" fill="white"/>
<path d="M64.3111 13.3068V13.0167H62.632V13.3068H64.3111Z" fill="white"/>
<path d="M62.9485 13.0911H62.632V14.0596H62.9485V13.0911Z" fill="white"/>
<path d="M62.9485 13.0911H62.632V14.0596H62.9485V13.0911Z" fill="white"/>
<path d="M62.9485 13.0911H62.632V14.0596H62.9485V13.0911Z" fill="white"/>
<path d="M59.2642 13.0911H58.9477V14.0596H59.2642V13.0911Z" fill="white"/>
<path d="M61.9648 13.0911H61.6483V14.0596H61.9648V13.0911Z" fill="white"/>
<path d="M60.6268 13.0911H60.3103V14.0596H60.6268V13.0911Z" fill="white"/>
<path d="M61.8704 14.059V13.7689H60.451V14.059H61.8704Z" fill="white"/>
<path d="M61.9648 13.3068V13.0167H61.0649V13.3068H61.9648Z" fill="white"/>
<path d="M2.11216 29.1764H1.54514V30.0792H2.11216V29.1764Z" fill="#D90000"/>
<path d="M17.1621 29.1764H16.5951V30.0792H17.1621V29.1764Z" fill="#D90000"/>
<path d="M5.7869 29.1764H5.21988V30.0792H5.7869V29.1764Z" fill="#D90000"/>
<path d="M9.53922 29.1764H8.9722V30.0792H9.53922V29.1764Z" fill="#D90000"/>
<path d="M13.3699 29.1764H12.8029V30.0792H13.3699V29.1764Z" fill="#D90000"/>
<path d="M20.9144 29.1764H20.3474V30.0792H20.9144V29.1764Z" fill="#D90000"/>
<path d="M39.9509 29.1764H39.3839V30.0792H39.9509V29.1764Z" fill="#D90000"/>
<path d="M24.745 29.1764H24.1779V30.0792H24.745V29.1764Z" fill="#D90000"/>
<path d="M28.4982 29.1764H27.9312V30.0792H28.4982V29.1764Z" fill="#D90000"/>
<path d="M32.2893 29.1764H31.7223V30.0792H32.2893V29.1764Z" fill="#D90000"/>
<path d="M36.0813 29.1764H35.5143V30.0792H36.0813V29.1764Z" fill="#D90000"/>
<path d="M43.6256 29.1764H43.0586V30.0792H43.6256V29.1764Z" fill="#D90000"/>
<path d="M47.4563 29.1764H46.8893V30.0792H47.4563V29.1764Z" fill="#D90000"/>
<path d="M51.3267 29.1764H50.7597V30.0792H51.3267V29.1764Z" fill="#D90000"/>
<path d="M54.9619 29.1764H54.3949V30.0792H54.9619V29.1764Z" fill="#D90000"/>
<path d="M58.8314 29.1764H58.2643V30.0792H58.8314V29.1764Z" fill="#D90000"/>
<path d="M62.6234 29.1764H62.0563V30.0792H62.6234V29.1764Z" fill="#D90000"/>
<path d="M2.11216 13.9741H1.54514V14.8768H2.11216V13.9741Z" fill="#239E3F"/>
<path d="M17.1621 13.9741H16.5951V14.8768H17.1621V13.9741Z" fill="#239E3F"/>
<path d="M5.7869 13.9741H5.21988V14.8768H5.7869V13.9741Z" fill="#239E3F"/>
<path d="M9.53922 13.9741H8.9722V14.8768H9.53922V13.9741Z" fill="#239E3F"/>
<path d="M13.3699 13.9741H12.8029V14.8768H13.3699V13.9741Z" fill="#239E3F"/>
<path d="M20.9144 13.9741H20.3474V14.8768H20.9144V13.9741Z" fill="#239E3F"/>
<path d="M39.9509 13.9741H39.3839V14.8768H39.9509V13.9741Z" fill="#239E3F"/>
<path d="M24.745 13.9741H24.1779V14.8768H24.745V13.9741Z" fill="#239E3F"/>
<path d="M28.4982 13.9741H27.9312V14.8768H28.4982V13.9741Z" fill="#239E3F"/>
<path d="M32.2893 13.9741H31.7223V14.8768H32.2893V13.9741Z" fill="#239E3F"/>
<path d="M36.0813 13.9741H35.5143V14.8768H36.0813V13.9741Z" fill="#239E3F"/>
<path d="M43.6256 13.9741H43.0586V14.8768H43.6256V13.9741Z" fill="#239E3F"/>
<path d="M47.4563 13.9741H46.8893V14.8768H47.4563V13.9741Z" fill="#239E3F"/>
<path d="M51.3267 13.9741H50.7597V14.8768H51.3267V13.9741Z" fill="#239E3F"/>
<path d="M54.9619 13.9741H54.3949V14.8768H54.9619V13.9741Z" fill="#239E3F"/>
<path d="M58.8314 13.9741H58.2643V14.8768H58.8314V13.9741Z" fill="#239E3F"/>
<path d="M62.6234 13.9741H62.0563V14.8768H62.6234V13.9741Z" fill="#239E3F"/>
<path fill-rule="evenodd" clip-rule="evenodd" d="M34.2292 16.9717C35.0217 17.8621 37.4647 22.7855 32.7545 26.0107C30.5403 27.5383 31.9114 27.6155 31.9769 27.8723C35.5362 26.1392 36.6986 23.7911 36.6716 21.6877C36.6445 19.5843 35.428 17.7258 34.2292 16.972V16.9717Z" fill="#DA0000"/>
<path fill-rule="evenodd" clip-rule="evenodd" d="M34.7004 16.7428C36.4582 17.5678 40.2836 21.7168 36.1662 26.3974C38.7245 25.8769 41.9769 18.971 34.7004 16.7428Z" fill="#DA0000"/>
<path fill-rule="evenodd" clip-rule="evenodd" d="M29.3022 16.7428C27.5445 17.5678 23.7191 21.7168 27.8364 26.3974C25.2782 25.8769 22.0257 18.971 29.3022 16.7428Z" fill="#DA0000"/>
<path fill-rule="evenodd" clip-rule="evenodd" d="M29.7667 16.9717C28.9742 17.8621 26.5312 22.7855 31.2414 26.0107C33.4556 27.5383 32.0845 27.6155 32.019 27.8723C28.4597 26.1392 27.2973 23.7911 27.3243 21.6877C27.3514 19.5843 28.5679 17.7258 29.7667 16.972V16.9717Z" fill="#DA0000"/>
<path fill-rule="evenodd" clip-rule="evenodd" d="M36.5166 27.4236C35.1235 27.4439 33.3672 27.2477 32.0647 26.6272C32.2792 27.0096 32.4575 27.2504 32.672 27.6328C33.9142 27.7378 35.6284 27.8677 36.5166 27.4236Z" fill="#DA0000"/>
<path fill-rule="evenodd" clip-rule="evenodd" d="M27.6128 27.4236C29.006 27.4439 30.7622 27.2477 32.0647 26.6272C31.8502 27.0096 31.672 27.2504 31.4575 27.6328C30.2153 27.7378 28.5011 27.8677 27.6128 27.4236Z" fill="#DA0000"/>
<path fill-rule="evenodd" clip-rule="evenodd" d="M30.1682 15.5029C30.4505 16.1905 31.191 16.2905 31.9836 15.8856C32.5613 16.2033 33.4546 16.2234 33.7626 15.5361C33.9969 17.2363 32.0465 16.8341 31.9739 16.5013C31.2478 17.1447 29.8959 16.7731 30.1682 15.5029Z" fill="#DA0000"/>
<path fill-rule="evenodd" clip-rule="evenodd" d="M32.0357 28.4942L32.7682 27.7268L32.8729 17.399L32.0009 16.6956L31.1289 17.367L31.3032 27.7586L32.0357 28.494V28.4942Z" fill="#DA0000"/>
</g>
</g>
<defs>
<clipPath id="clip0_14_21">
<rect width="64" height="44" rx="9" fill="white"/>
</clipPath>
</defs>
</svg>
