<?xml version="1.0" encoding="utf-8"?>
<!-- Svg Vector Icons : http://www.onlinewebfonts.com/icon -->
<!DOCTYPE svg PUBLIC "-//W3C//DTD SVG 1.1//EN" "http://www.w3.org/Graphics/SVG/1.1/DTD/svg11.dtd">
<svg version="1.1" xmlns="http://www.w3.org/2000/svg" xmlns:xlink="http://www.w3.org/1999/xlink" x="0px" y="0px" viewBox="0 0 1000 1000" enable-background="new 0 0 1000 1000" xml:space="preserve">
<metadata> Svg Vector Icons : http://www.onlinewebfonts.com/icon </metadata>
<g><path d="M881.1,990H118.9C58.5,990,10,941,10,881.1V118.9C10,59,58.5,10,118.9,10h762.2C941,10,990,59,990,118.9v762.2C990,941,941,990,881.1,990z M363.9,282.2H255v435.6h108.9V282.2z M772.2,336.7c0-30.1-24.4-54.4-54.4-54.4H581.7h-27.2h-81.7v435.6h108.9V554.4h136.1c30.1,0,54.4-24.4,54.4-54.4V336.7z M581.7,363.9h108.9v108.9H581.7V363.9z"/></g>
</svg>